
<svg xmlns="http://www.w3.org/2000/svg" version="1.1" xmlns:xlink="http://www.w3.org/1999/xlink" preserveAspectRatio="none" x="0px" y="0px" width="550px" height="400px" viewBox="0 0 550 400">
<defs>
<g id="Layer0_0_FILL">
<path fill="#FF9900" stroke="none" d="
M 169.5 165.05
Q 170.05 161.659765625 170.05 158.05 170.05 140.65 157.75 128.35 145.45 116.05 128.05 116.05 116.4083984375 116.05 107.05 121.55 102.420703125 124.279296875 98.35 128.35 86.05 140.65 86.05 158.05 86.05 175.45 98.35 187.75 110.65 200.05 128.05 200.05 145.45 200.05 157.75 187.75 167.4982421875 178.0017578125 169.5 165.05 Z"/>

<path fill="#0099FF" stroke="none" d="
M 170.05 158.05
Q 170.05 161.659765625 169.5 165.05
L 194.05 165.05 194.05 78.05 107.05 78.05 107.05 121.55
Q 116.4083984375 116.05 128.05 116.05 145.45 116.05 157.75 128.35 170.05 140.65 170.05 158.05 Z"/>
</g>
</defs>

<g transform="matrix( 1, 0, 0, 1, 0,0) ">
<use xlink:href="#Layer0_0_FILL"/>
</g>
</svg>
